<svg width="10" height="10" viewBox="0 0 10 10" fill="none" xmlns="http://www.w3.org/2000/svg">
<path fill-rule="evenodd" clip-rule="evenodd" d="M4.85225 1.28003C4.89894 1.26001 4.9492 1.24969 5 1.24969C5.0508 1.24969 5.10106 1.26001 5.14775 1.28003L7.5455 2.3079C7.68044 2.36575 7.79544 2.46193 7.87623 2.58452C7.95702 2.70711 8.00006 2.85071 8 2.99753V5.57003C7.99995 6.03275 7.8776 6.48724 7.64533 6.88744C7.41306 7.28764 7.07913 7.61933 6.67737 7.8489L5.186 8.7009C5.12935 8.73326 5.06524 8.75028 5 8.75028C4.93476 8.75028 4.87065 8.73326 4.814 8.7009L3.32263 7.8489C2.92076 7.61927 2.58676 7.28745 2.35448 6.88711C2.12221 6.48677 1.99991 6.03213 2 5.56928V2.99753C2.00002 2.85078 2.04309 2.70725 2.12387 2.58474C2.20466 2.46222 2.31962 2.3661 2.4545 2.30828L4.85225 1.28003ZM6.39012 4.51515C6.45843 4.44443 6.49623 4.3497 6.49538 4.25138C6.49452 4.15305 6.45508 4.059 6.38556 3.98947C6.31603 3.91994 6.22197 3.88051 6.12365 3.87965C6.02533 3.8788 5.9306 3.91659 5.85988 3.9849L4.625 5.21978L4.14012 4.7349C4.0694 4.66659 3.97467 4.6288 3.87635 4.62965C3.77803 4.63051 3.68397 4.66994 3.61444 4.73947C3.54491 4.809 3.50548 4.90305 3.50462 5.00138C3.50377 5.0997 3.54157 5.19443 3.60988 5.26515L4.35988 6.01515C4.4302 6.08545 4.52556 6.12495 4.625 6.12495C4.72444 6.12495 4.8198 6.08545 4.89012 6.01515L6.39012 4.51515Z" fill="#2B2B2B"/>
</svg>
